<?xml version="1.0" encoding="iso-8859-1"?>
<!-- Generator: Adobe Illustrator 22.0.1, SVG Export Plug-In . SVG Version: 6.00 Build 0)  -->
<svg version="1.1" id="Layer_1" xmlns="http://www.w3.org/2000/svg" xmlns:xlink="http://www.w3.org/1999/xlink" x="0px" y="0px"
	 viewBox="0 0 100.25 100.25" style="enable-background:new 0 0 100.25 100.25;" xml:space="preserve">
<g>
	<path d="M51.5,52.893c-21.505,0-39,17.72-39,39.5c0,0.829,0.671,1.5,1.5,1.5h75c0.829,0,1.5-0.671,1.5-1.5
		C90.5,70.613,73.005,52.893,51.5,52.893z M53.604,68.893l2.87,22H45.647l3.137-22H53.604z M56,56.188v9.705h-9v-9.705
		c1.475-0.188,2.975-0.295,4.5-0.295S54.525,56,56,56.188z M44,56.698v10.695c0,0.829,0.671,1.5,1.5,1.5h0.254l-3.137,22H15.53
		C16.205,74.042,28.205,60.106,44,56.698z M59.49,90.893c-0.002-0.029,0.001-0.057-0.003-0.086l-2.858-21.914H57.5
		c0.829,0,1.5-0.671,1.5-1.5V56.698c15.795,3.408,27.795,17.344,28.47,34.195H59.49z"/>
	<path d="M50.495,47.5c12.133,0,22.005-9.87,22.005-22.001C72.5,13.369,62.628,3.5,50.495,3.5C38.367,3.5,28.5,13.369,28.5,25.499
		C28.5,37.631,38.367,47.5,50.495,47.5z M50.495,6.5C60.974,6.5,69.5,15.023,69.5,25.499c0,10.477-8.525,19.001-19.005,19.001
		C40.021,44.5,31.5,35.976,31.5,25.499C31.5,15.023,40.021,6.5,50.495,6.5z"/>
</g>
</svg>
